# xmcd
#
# Track frame offsets: 
#        150
#        9595
#        19275
#        29642
#        40782
#        52235
#        61957
#        71265
#        82157
#        92537
#        102870
#        113600
#        124830
#        135197
#        144235
#        154045
#        163330
#        173997
#        184377
#        196705
#        207297
#        220017
#        231832
#        244377
#        256132
#        265802
#        276205
#        285522
#        295457
#        306877
#        316702
#        327505
#        338167
#        346432
#
# Disc length: 4769 seconds
#
# Revision: 0
# Processed by: cddbd v1.5.2PL0 Copyright (c) Steve Scherf et al.
# Submitted via: ExactAudioCopyFreeDBPlugin 1.0
#
DISCID=f9129f22
DTITLE=Lloyd Price - Lloyd Rocks
DYEAR=1900
DGENRE=
TTITLE0=Where You At?
TTITLE1=Country Boy Rock
TTITLE2=Rock N Roll Dance
TTITLE3=Walkin The Track
TTITLE4=Lawdy Miss Clawdy
TTITLE5=Why
TTITLE6=I'm Glad Glad
TTITLE7=Baby Please Come Home
TTITLE8=Tell Me Pretty Baby
TTITLE9=Carry Me Home
TTITLE10=Woe Ho Ho
TTITLE11=Heavy Dreams
TTITLE12=The Chicken And The Bop
TTITLE13=Hello Dreams
TTITLE14=Georgianna
TTITLE15=How Many Times
TTITLE16=Such A Mess
TTITLE17=Down By The River
TTITLE18=Gonna Let You Come Back Home
TTITLE19=Stagger Lee
TTITLE20=You Need Love
TTITLE21=Where Were You On Our Wedding Day
TTITLE22=Just Because
TTITLE23=Personality
TTITLE24=Have You Ever Had The Blues
TTITLE25=I'm Gonna Get Married
TTITLE26=Wont'cha Come Home
TTITLE27=Lady Luck
TTITLE28=Question
TTITLE29=Mailman Blues
TTITLE30=Ain't That Just Like A Woman
TTITLE31=The Hoochie Coochie Coo
TTITLE32=Lawdy Miss Clawdy
TTITLE33=Baby Please Come Home (LP Version)
EXTD=
EXTT0=
EXTT1=
EXTT2=
EXTT3=
EXTT4=
EXTT5=
EXTT6=
EXTT7=
EXTT8=
EXTT9=
EXTT10=
EXTT11=
EXTT12=
EXTT13=
EXTT14=
EXTT15=
EXTT16=
EXTT17=
EXTT18=
EXTT19=
EXTT20=
EXTT21=
EXTT22=
EXTT23=
EXTT24=
EXTT25=
EXTT26=
EXTT27=
EXTT28=
EXTT29=
EXTT30=
EXTT31=
EXTT32=
EXTT33=
PLAYORDER=
